<?xml version="1.0" encoding="UTF-8"?>
<svg data-bbox="-0.04 0 35.38 35.38" viewBox="0 0 35.29 35.38" xmlns="http://www.w3.org/2000/svg" data-type="color">
    <g>
        <path d="M35.34 17.69c0 9.77-7.92 17.69-17.69 17.69-9.77 0-17.69-7.92-17.69-17.69C-.04 7.92 7.88 0 17.65 0c9.77 0 17.69 7.92 17.69 17.69z" fill="#000000" data-color="1"/>
        <path d="m6.91 28.33 1.61-6c-.91-1.64-1.39-3.48-1.39-5.35 0-6.11 4.97-11.08 11.08-11.08s11.08 4.97 11.08 11.08-4.97 11.08-11.08 11.08c-1.83 0-3.65-.46-5.27-1.34l-6.03 1.61zm6.33-3.87.38.23c1.39.83 2.98 1.27 4.59 1.27 4.95 0 8.99-4.03 8.99-8.99s-4.03-8.99-8.99-8.99c-4.95 0-8.99 4.03-8.99 8.99 0 1.64.45 3.25 1.31 4.66l.23.38-.9 3.35 3.38-.9z" fill="#ffffff" data-color="2"/>
        <path d="M22.33 18.51c-.46-.27-1.05-.58-1.59-.36-.41.17-.68.81-.94 1.14-.14.17-.3.2-.51.11-1.55-.62-2.73-1.65-3.59-3.07-.14-.22-.12-.4.06-.6.26-.3.58-.65.65-1.06.07-.41-.12-.89-.29-1.25-.22-.47-.46-1.13-.92-1.39-.43-.24-.99-.11-1.38.2-.66.54-.98 1.38-.97 2.21 0 .24.03.47.09.7.13.55.39 1.06.67 1.55.22.37.45.73.7 1.07.83 1.12 1.86 2.1 3.05 2.83.6.36 1.24.68 1.9.9.75.25 1.41.5 2.21.35.84-.16 1.67-.68 2.01-1.49.1-.24.15-.51.09-.76-.1-.51-.82-.82-1.24-1.08z" fill-rule="evenodd" clip-rule="evenodd" fill="#ffffff" data-color="2"/>
    </g>
</svg>
